<svg enable-background="new 0 0 256 256" height="512" viewBox="0 0 256 256" width="512" xmlns="http://www.w3.org/2000/svg"><g id="Layer_39"><g><g><g><path d="m197.536 170v-145.534c0-6.787-5.553-12.341-12.341-12.341h-100.367l-50.402 50.401v107.474z" fill="#edf4fc"/></g></g><g><g><ellipse cx="116" cy="84.943" fill="#f98fa6" rx="39.629" ry="9.229"/></g></g><g><g><path d="m116 94.171c-21.886 0-39.629-4.132-39.629-9.229v52.114c0 5.097 17.742 9.229 39.629 9.229s39.629-4.132 39.629-9.229v-52.113c0 5.097-17.743 9.228-39.629 9.228z" fill="#fc657e"/></g></g><g><g><path d="m34.426 170v51.534c0 6.787 5.553 12.341 12.341 12.341h138.428c6.787 0 12.341-5.553 12.341-12.341v-51.534z" fill="#fc657e"/></g></g><g><g><path d="m185.195 236.375h-138.428c-8.184 0-14.841-6.658-14.841-14.841v-51.534c0-1.381 1.119-2.5 2.5-2.5s2.5 1.119 2.5 2.5v51.534c0 5.426 4.415 9.841 9.841 9.841h138.429c5.426 0 9.84-4.415 9.84-9.841v-51.534c0-1.381 1.119-2.5 2.5-2.5s2.5 1.119 2.5 2.5v51.534c-.001 8.183-6.658 14.841-14.841 14.841z"/></g></g><g><g><path d="m34.426 62.526h38.061c6.787 0 12.341-5.553 12.341-12.341v-38.06z" fill="#c7d7e5"/></g></g><g><g><path d="m223.918 131.551c-4.149.773-7.419 3.976-8.208 8.041-.04.204-.325.204-.364 0-.789-4.065-4.059-7.268-8.208-8.041-.208-.039-.208-.318 0-.357 4.149-.773 7.419-3.976 8.208-8.041.04-.204.325-.204.364 0 .789 4.065 4.059 7.268 8.208 8.041.208.039.208.318 0 .357z" fill="#f5c84c"/></g></g><g><g><path d="m119.412 250.253c-2.91.542-5.204 2.789-5.757 5.64-.028.143-.228.143-.255 0-.553-2.851-2.847-5.098-5.757-5.64-.146-.027-.146-.223 0-.25 2.91-.542 5.204-2.789 5.757-5.64.028-.143.228-.143.255 0 .553 2.851 2.847 5.098 5.757 5.64.147.027.147.222 0 .25z" fill="#87d147"/></g></g><g><g><circle cx="73.981" cy="3.377" fill="#f5c84c" r="3.377"/></g></g><g><g><circle cx="210.981" cy="102.377" fill="#fc657e" r="3.377"/></g></g><g><g><path d="m54.454 10.758h-1.824v-1.825c0-1.366-1.107-2.473-2.473-2.473s-2.473 1.107-2.473 2.473v1.824h-1.824c-1.366 0-2.473 1.107-2.473 2.473s1.107 2.473 2.473 2.473h1.824v1.824c0 1.366 1.107 2.473 2.473 2.473s2.473-1.107 2.473-2.473v-1.824h1.824c1.366 0 2.473-1.107 2.473-2.473s-1.108-2.472-2.473-2.472z" fill="#70d6f9"/></g></g><g><g><circle cx="87.365" cy="245.627" fill="#70d6f9" r="3.377"/></g></g><g><g><path d="m197.535 172.5h-163.109c-1.381 0-2.5-1.119-2.5-2.5v-107.474c0-.663.264-1.299.732-1.768l50.402-50.401c.469-.469 1.104-.732 1.768-.732h100.368c8.183 0 14.84 6.658 14.84 14.841v145.534c-.001 1.381-1.12 2.5-2.501 2.5zm-160.609-5h158.109v-143.034c0-5.426-4.414-9.841-9.84-9.841h-99.333l-48.936 48.937z"/></g></g><g><g><path d="m72.487 65.026h-37.061c-1.381 0-2.5-1.119-2.5-2.5s1.119-2.5 2.5-2.5h37.062c5.426 0 9.84-4.415 9.84-9.841v-37.06c0-1.381 1.119-2.5 2.5-2.5s2.5 1.119 2.5 2.5v37.061c-.001 8.183-6.658 14.84-14.841 14.84z"/></g></g><g><g><g><path d="m89.842 197.854c-3.524-1.133-6.952-2.08-6.952-5.749 0-2.934 2.041-4.381 4.918-4.381 3.306 0 5.247 2.031 5.688 4.34.045.236.251.406.491.406h4.389c.299 0 .535-.264.496-.563-.604-4.699-4.372-8.452-11.064-8.452-6.052 0-10.307 3.286-10.307 8.784 0 6.139 4.153 7.802 9.529 9.568 3.738 1.179 7.174 2.307 7.174 6.061 0 2.586-1.607 4.605-5.053 4.605-3.757 0-5.913-2.483-6.176-5.103-.025-.256-.24-.45-.497-.45h-4.344c-.293 0-.525.251-.498.544.51 5.791 5.573 9.278 11.648 9.278 6.533 0 10.263-4.068 10.263-9.008.001-6.333-4.209-8.1-9.705-9.88z"/></g></g><g><g><path d="m127.675 214.319c12.584-7.923 8.491-30.863-8.7-30.863-13.954 0-19.501 15.102-13.963 25.256 3.705 6.795 11.366 9.342 18.38 7.507l6.154 6.197c.094.094.222.147.354.147h5.15c.45 0 .67-.551.346-.861zm-8.7-26.057c14.446 0 14.508 23.719 0 23.719-4.064 0-7.529-1.863-9.43-5.55-3.583-6.94-.691-18.169 9.43-18.169z"/></g></g><g><g><path d="m155.201 212.25h-10.695v-27.891c0-.276-.224-.5-.5-.5h-4.075c-.276 0-.5.224-.5.5v31.57c0 .276.224.5.5.5h15.271c.276 0 .5-.224.5-.5v-3.179c-.001-.276-.224-.5-.501-.5z"/></g></g></g><g><g><path d="m116 96.671c-15.647 0-42.129-2.47-42.129-11.729s26.482-11.728 42.129-11.728 42.129 2.47 42.129 11.729-26.482 11.728-42.129 11.728zm-37.112-11.728c1.002 2.387 14.403 6.728 37.112 6.728s36.11-4.342 37.112-6.729c-1.002-2.387-14.403-6.729-37.112-6.729s-36.11 4.343-37.112 6.73zm74.249.066h.011z"/></g></g><g><g><path d="m116 148.786c-15.647 0-42.129-2.47-42.129-11.729v-51.114c0-1.381 1.119-2.5 2.5-2.5s2.5 1.119 2.5 2.5v51.114c.769 2.305 14.207 6.729 37.129 6.729s36.36-4.424 37.137-6.795l-.008-51.048c0-1.381 1.119-2.5 2.5-2.5s2.5 1.119 2.5 2.5v51.114c0 9.258-26.482 11.729-42.129 11.729z"/></g></g><g><g><path d="m116 114.043c-15.647 0-42.129-2.47-42.129-11.729 0-1.381 1.119-2.5 2.5-2.5s2.5 1.119 2.5 2.5c.769 2.305 14.207 6.729 37.129 6.729s36.36-4.424 37.137-6.795c0-1.381 1.115-2.467 2.496-2.467s2.496 1.152 2.496 2.533c0 9.259-26.482 11.729-42.129 11.729z"/></g></g><g><g><path d="m116 131.414c-15.647 0-42.129-2.47-42.129-11.729 0-1.381 1.119-2.5 2.5-2.5s2.5 1.119 2.5 2.5c.768 2.305 14.206 6.729 37.129 6.729s36.361-4.423 37.137-6.795c0-1.38 1.115-2.467 2.496-2.467s2.496 1.152 2.496 2.533c0 9.259-26.482 11.729-42.129 11.729z"/></g></g></g></g></svg>