<svg id="Capa_1" enable-background="new 0 0 512 512" height="512" viewBox="0 0 512 512" width="512" xmlns="http://www.w3.org/2000/svg"><g><g><path clip-rule="evenodd" d="m10 142.579v54.458h54.481v-27.229-27.229z" fill="#7dd9c2" fill-rule="evenodd"/></g><g><path clip-rule="evenodd" d="m447.491 142.551v27.257 27.229h54.509v-54.486z" fill="#7dd9c2" fill-rule="evenodd"/></g><g><path clip-rule="evenodd" d="m255.986 14c-52.383 0-94.874 14.875-94.874 33.207 0 18.36 42.491 33.236 94.874 33.236 52.412 0 94.874-14.875 94.874-33.236 0-18.332-42.463-33.207-94.874-33.207z" fill="#ffcd69" fill-rule="evenodd"/></g><g><path clip-rule="evenodd" d="m255.986 142.579-57.769 27.229 57.769 27.229 57.797-27.229z" fill="#beece1" fill-rule="evenodd"/></g><g><path clip-rule="evenodd" d="m255.986 235.175-57.769 27.228 57.769 27.229 57.797-27.229z" fill="#beece1" fill-rule="evenodd"/></g><g><path clip-rule="evenodd" d="m78.087 341.653h-68.087v54.487h68.087 68.115v-54.487z" fill="#7dd9c2" fill-rule="evenodd"/></g><g><path clip-rule="evenodd" d="m255.986 341.653h-68.087v54.487h68.087 68.115v-54.487z" fill="#7dd9c2" fill-rule="evenodd"/></g><g><path clip-rule="evenodd" d="m365.798 341.653v54.487h68.087 68.115v-54.487h-68.115z" fill="#7dd9c2" fill-rule="evenodd"/></g><g><path clip-rule="evenodd" d="m78.087 443.514h-68.087v54.486h136.202v-54.486z" fill="#ff7d97" fill-rule="evenodd"/></g><g><path clip-rule="evenodd" d="m255.986 443.514h-68.087v54.486h136.202v-54.486z" fill="#ff7d97" fill-rule="evenodd"/></g><g><path clip-rule="evenodd" d="m433.885 443.514h-68.087v54.486h136.202v-54.486z" fill="#ff7d97" fill-rule="evenodd"/></g><g><path d="m447.491 207.037h54.509c5.522 0 10-4.477 10-10v-54.486c0-5.523-4.478-10-10-10h-54.509c-5.522 0-10 4.477-10 10v17.196l-123.186-.747-48.32-22.764v-45.97c22.7-.802 43.854-4.323 60.397-10.118 28.495-9.982 34.477-23.423 34.477-32.94 0-17.884-21.185-32.134-58.121-39.096-5.433-1.021-10.656 2.548-11.68 7.975-1.022 5.427 2.548 10.656 7.975 11.679 29.558 5.571 41.826 15.412 41.826 19.442 0 2.582-5.726 8.683-21.089 14.065-16.881 5.914-39.533 9.17-63.785 9.17-24.241 0-46.89-3.257-63.774-9.17-15.371-5.383-21.099-11.484-21.099-14.065 0-4.028 12.27-13.866 41.827-19.442 5.428-1.024 8.997-6.253 7.973-11.681-1.023-5.426-6.25-8.997-11.68-7.973-36.937 6.968-58.12 21.218-58.12 39.096 0 9.517 5.983 22.958 34.487 32.94 16.545 5.795 37.695 9.316 60.386 10.118v45.972l-50.007 23.571h-121.498v-17.257c0-5.523-4.478-10-10-10h-54.48c-5.522 0-10 4.477-10 10v54.486c0 5.523 4.478 10 10 10h54.48c5.522 0 10-4.477 10-10v-17.229h121.498l50.007 23.571v25.454l-50.007 23.57h-117.891c-5.522 0-10 4.477-10 10v69.25h-58.087c-5.522 0-10 4.477-10 10v54.486c0 5.523 4.478 10 10 10h58.087v27.374h-58.087c-5.522 0-10 4.477-10 10v54.486c0 5.523 4.478 10 10 10h136.202c5.522 0 10-4.477 10-10v-54.486c0-5.523-4.478-10-10-10h-58.115v-27.374h58.115c5.522 0 10-4.477 10-10v-54.486c0-5.523-4.478-10-10-10h-58.115v-59.25h107.891l50.007 23.571v35.679h-58.086c-5.522 0-10 4.477-10 10v54.486c0 5.523 4.478 10 10 10h58.086v27.374h-58.086c-5.522 0-10 4.477-10 10v54.486c0 5.523 4.478 10 10 10h136.201c5.522 0 10-4.477 10-10v-54.486c0-5.523-4.478-10-10-10h-58.115v-27.374h58.115c5.522 0 10-4.477 10-10v-54.486c0-5.523-4.478-10-10-10h-58.115v-35.678l50.035-23.572h107.864v59.25h-58.087c-5.522 0-10 4.477-10 10v54.486c0 5.523 4.478 10 10 10h58.087v27.374h-58.087c-5.522 0-10 4.477-10 10v54.486c0 5.523 4.478 10 10 10h136.203c5.522 0 10-4.477 10-10v-54.486c0-5.523-4.478-10-10-10h-58.115v-27.374h58.115c5.522 0 10-4.477 10-10v-54.486c0-5.523-4.478-10-10-10h-58.115v-69.25c0-5.523-4.478-10-10-10h-117.864l-50.035-23.572v-25.452l51.706-24.359 119.8.727v17.289c-.001 5.523 4.477 10 9.999 10zm-393.011-20h-34.48v-34.486h34.48zm81.722 300.963h-116.202v-34.486h116.202zm0-101.86h-116.202v-34.486h116.202zm177.899 101.86h-116.202v-34.486h116.201v34.486zm0-101.86h-116.202v-34.486h116.201v34.486zm177.899 101.86h-116.202v-34.486h116.202zm0-101.86h-116.202v-34.486h116.202zm-236.014-107.562-34.314-16.174 34.314-16.174 34.332 16.174zm0-92.596-34.315-16.174 34.315-16.174 34.333 16.174zm201.505-33.431h34.509v34.486h-34.509z"/><path d="m255.985 24h.058c5.522 0 9.972-4.477 9.972-10s-4.507-10-10.029-10-10 4.477-10 10 4.477 10 9.999 10z"/></g></g></svg>