<?xml version="1.0" ?><!DOCTYPE svg  PUBLIC '-//W3C//DTD SVG 1.1//EN'  'http://www.w3.org/Graphics/SVG/1.1/DTD/svg11.dtd'><svg enable-background="new 0 0 128 128" id="Layer_1" version="1.1" viewBox="0 0 128 128" xml:space="preserve" xmlns="http://www.w3.org/2000/svg" xmlns:xlink="http://www.w3.org/1999/xlink"><path d="M110,107H13c-2.21,0-4-1.79-4-4V26c0-2.21,1.79-4,4-4h97c2.21,0,4,1.79,4,4v77  C114,105.21,112.21,107,110,107z" fill="#00AEEF"/><path d="M115,107H18c-2.21,0-4-1.79-4-4V26c0-2.21,1.79-4,4-4h97c2.21,0,4,1.79,4,4v77  C119,105.21,117.21,107,115,107z" fill="#00C0F3"/><polyline fill="none" points="84.86,48.55   106.56,70.24 85.34,91.45 " stroke="#00AEEF" stroke-linecap="square" stroke-miterlimit="10" stroke-width="6"/><polyline fill="none" points="49.14,48.55   27.44,70.24 48.66,91.45 " stroke="#00AEEF" stroke-linecap="square" stroke-miterlimit="10" stroke-width="6"/><line fill="none" stroke="#00AEEF" stroke-linecap="square" stroke-miterlimit="10" stroke-width="6" x1="76.73" x2="60.94" y1="48.55" y2="91.45"/><rect fill="#00AEEF" height="3" width="105" x="14" y="35"/><rect fill="#0092C8" height="3" width="5" x="9" y="35"/><circle cx="20.67" cy="28.67" fill="#FFF200" r="2"/><circle cx="27.67" cy="28.67" fill="#EC008C" r="2"/><circle cx="34.67" cy="28.67" fill="#333031" r="2"/><rect fill="#EC008C" height="3" width="13" x="26" y="47"/><rect fill="#58595B" height="3" width="27" x="26" y="65"/><rect fill="#58595B" height="3" width="27" x="26" y="85"/><rect fill="#FFFFFF" height="3" width="25" x="34" y="52"/><rect fill="#FFFFFF" height="3" width="18" x="34" y="57"/><rect fill="#FFFFFF" height="3" width="18" x="88" y="52"/><rect fill="#EC008C" height="3" width="8" x="76" y="52"/><rect fill="#FFF200" height="3" width="11" x="62" y="52"/><rect fill="#FFFFFF" height="3" width="11" x="55" y="57"/><rect fill="#0092C8" height="3" width="11" x="69" y="57"/><rect fill="#EC008C" height="3" width="13" x="26" y="91"/><rect fill="#FFFFFF" height="3" width="25" x="34" y="96"/><rect fill="#EC008C" height="3" width="13" x="26" y="70"/><rect fill="#FFFFFF" height="3" width="25" x="34" y="75"/><rect fill="#FFFFFF" height="3" width="18" x="34" y="80"/><rect fill="#FFFFFF" height="3" width="18" x="88" y="75"/><rect fill="#EC008C" height="3" width="8" x="77" y="75"/><rect fill="#FFF200" height="3" width="11" x="55" y="80"/><rect fill="#0092C8" height="3" width="11" x="62" y="75"/></svg>