<svg id="Flat" height="512" viewBox="0 0 512 512" width="512" xmlns="http://www.w3.org/2000/svg"><rect fill="#8acce7" height="192" rx="24" width="128" x="24" y="24"/><path d="m24 88h128v-40a24 24 0 0 0 -24-24h-80a24 24 0 0 0 -24 24z" fill="#379ec3"/><path d="m48 48h32v16h-32z" fill="#2d80b3"/><path d="m96 48h32v16h-32z" fill="#2d80b3"/><g fill="#379ec3"><path d="m48 112h32v16h-32z"/><path d="m96 112h32v16h-32z"/><path d="m48 144h32v16h-32z"/><path d="m96 144h16v16h-16z"/><path d="m48 176h32v16h-32z"/><path d="m96 176h32v16h-32z"/></g><path d="m232 200h-8a32.03635 32.03635 0 0 1 -32-32 16.01833 16.01833 0 0 0 -16-16h-8v-16h8a32.03635 32.03635 0 0 1 32 32 16.01833 16.01833 0 0 0 16 16h8z" fill="#e44042"/><rect fill="#8acce7" height="160" rx="24" width="96" x="248" y="128"/><path d="m248 192h96v-40a24 24 0 0 0 -24-24h-48a24 24 0 0 0 -24 24z" fill="#379ec3"/><path d="m272 152h32v16h-32z" fill="#2d80b3"/><path d="m272 216h32v16h-32z" fill="#379ec3"/><path d="m272 248h32v16h-32z" fill="#379ec3"/><rect fill="#8acce7" height="160" rx="24" width="96" x="392" y="128"/><path d="m392 192h96v-40a24 24 0 0 0 -24-24h-48a24 24 0 0 0 -24 24z" fill="#379ec3"/><path d="m416 152h32v16h-32z" fill="#2d80b3"/><path d="m416 216h32v16h-32z" fill="#379ec3"/><path d="m416 248h32v16h-32z" fill="#379ec3"/><rect fill="#8acce7" height="160" rx="24" width="96" x="392" y="328"/><path d="m392 392h96v-40a24 24 0 0 0 -24-24h-48a24 24 0 0 0 -24 24z" fill="#379ec3"/><path d="m416 352h32v16h-32z" fill="#2d80b3"/><path d="m416 416h32v16h-32z" fill="#379ec3"/><path d="m416 448h32v16h-32z" fill="#379ec3"/><path d="m360 192h16v16h-16z" fill="#e44042"/><path d="m376 376h-48a40.04552 40.04552 0 0 1 -40-40v-32h16v32a24.02718 24.02718 0 0 0 24 24h48z" fill="#e44042"/></svg>