<?xml version="1.0" encoding="iso-8859-1"?>
<!-- Generator: Adobe Illustrator 19.0.0, SVG Export Plug-In . SVG Version: 6.00 Build 0)  -->
<svg version="1.1" id="Layer_1" xmlns="http://www.w3.org/2000/svg" xmlns:xlink="http://www.w3.org/1999/xlink" x="0px" y="0px"
	 viewBox="0 0 512.002 512.002" style="enable-background:new 0 0 512.002 512.002;" xml:space="preserve">
<g>
	<path style="fill:#FBC640;" d="M288.722,66.066c0,28.481-62.167,51.567-138.835,51.567c-76.685,0-138.835-23.086-138.835-51.567
		s62.151-51.567,138.835-51.567C226.556,14.499,288.722,37.585,288.722,66.066z"/>
	<path style="fill:#FBC640;" d="M288.722,66.066v325.54c0,28.481-62.167,51.567-138.835,51.567
		c-76.685,0-138.835-23.086-138.835-51.567V66.066c0,28.481,62.151,51.567,138.835,51.567
		C226.556,117.634,288.722,94.547,288.722,66.066z"/>
</g>
<path style="fill:#EFEFEF;" d="M500.949,384.156v-55.142H463.65c-2.471-9.279-6.155-18.066-10.877-26.181l26.396-26.396
	l-38.992-38.991l-26.396,26.396c-8.115-4.722-16.902-8.405-26.181-10.877v-37.299h-55.142v37.298
	c-9.279,2.471-18.066,6.155-26.181,10.877l-26.396-26.396l-38.991,38.991l26.396,26.397c-4.722,8.115-8.405,16.902-10.877,26.181
	h-37.298v55.142h37.298c2.471,9.278,6.156,18.066,10.877,26.181l-26.396,26.396l38.991,38.991l26.396-26.396
	c8.115,4.722,16.902,8.405,26.181,10.877v37.299h55.142v-37.299c9.279-2.471,18.066-6.155,26.181-10.877l26.396,26.396
	l38.992-38.991l-26.396-26.396c4.722-8.115,8.405-16.902,10.877-26.181h37.299V384.156z M360.029,414.79
	c-32.146,0-58.205-26.059-58.205-58.205s26.059-58.205,58.205-58.205s58.205,26.059,58.205,58.205
	C418.235,388.732,392.175,414.79,360.029,414.79z"/>
<g>
	<path style="fill:#231F20;" d="M192.742,209.561c0.532,0,1.071-0.039,1.613-0.117l1.677-0.249
		c6.036-0.911,10.19-6.543,9.279-12.579c-0.911-6.036-6.546-10.187-12.579-9.279l-1.573,0.232c-6.04,0.883-10.22,6.494-9.337,12.535
		C182.622,205.603,187.345,209.561,192.742,209.561z"/>
	<path style="fill:#231F20;" d="M360.029,287.328c-38.189,0-69.258,31.068-69.258,69.258s31.068,69.258,69.258,69.258
		s69.258-31.068,69.258-69.258C429.287,318.396,398.219,287.328,360.029,287.328z M360.029,403.738
		c-26,0-47.153-21.153-47.153-47.153s21.153-47.153,47.153-47.153s47.153,21.152,47.153,47.153
		C407.182,382.586,386.029,403.738,360.029,403.738z"/>
	<path style="fill:#231F20;" d="M500.948,317.962H471.82c-1.548-4.472-3.367-8.846-5.443-13.102l20.608-20.608
		c2.072-2.072,3.237-4.884,3.237-7.815c0-2.931-1.165-5.743-3.237-7.815l-38.991-38.991c-4.317-4.316-11.313-4.316-15.631,0
		l-20.608,20.608c-4.256-2.077-8.632-3.894-13.102-5.442v-29.13c0-6.104-4.949-11.052-11.052-11.052h-55.143
		c-6.103,0-11.052,4.948-11.052,11.052v29.129c-4.471,1.548-8.846,3.365-13.102,5.442l-8.531-8.531V66.066
		c0-13.25-8.306-32.129-47.871-46.825C224.477,9.056,188.246,3.447,149.884,3.447c-38.368,0-74.599,5.609-102.023,15.795
		C8.305,33.936,0,52.816,0,66.066v325.54c0,13.251,8.305,32.13,47.865,46.825c27.422,10.186,63.654,15.795,102.023,15.795
		c30.067,0,58.792-3.465,83.021-9.861c0.057,0.061,0.107,0.125,0.167,0.185l38.991,38.991c4.317,4.316,11.313,4.316,15.631,0
		l20.608-20.608c4.255,2.077,8.631,3.894,13.102,5.442v29.129c0,6.104,4.949,11.052,11.052,11.052h55.143
		c6.103,0,11.052-4.948,11.052-11.052v-29.129c4.471-1.548,8.846-3.365,13.102-5.442l20.608,20.608
		c4.317,4.316,11.313,4.316,15.631,0l38.991-38.991c2.072-2.072,3.237-4.884,3.237-7.815c0-2.931-1.165-5.743-3.237-7.815
		l-20.608-20.608c2.077-4.255,3.894-8.631,5.443-13.102h29.128c6.103,0,11.052-4.948,11.052-11.052v-55.142
		C512,322.91,507.052,317.962,500.948,317.962z M219.111,317.962c-6.103,0-11.052,4.948-11.052,11.052v22.558
		c-16.888,3.046-36.432,4.912-58.172,4.912c-78.004,0-127.781-23.996-127.781-40.515V266.79c6.593,4.411,15.016,8.712,25.76,12.703
		c27.422,10.185,63.654,15.795,102.023,15.795c30.505,0,59.638-3.561,84.088-10.136l19.709,19.71
		c-2.078,4.256-3.895,8.632-5.443,13.102h-29.13V317.962z M149.886,189.882c-78.002,0-127.781-23.996-127.781-40.515V100.2
		c6.591,4.408,15.025,8.704,25.76,12.691c27.422,10.186,63.654,15.795,102.023,15.795c38.363,0,74.593-5.609,102.017-15.795
		c10.739-3.989,19.174-8.285,25.766-12.694v49.17c0,8.686-14.765,21.546-47.751,30.694c-5.881,1.631-9.327,7.722-7.697,13.604
		c1.358,4.894,5.801,8.101,10.645,8.101c0.978,0,1.972-0.13,2.961-0.405c17.327-4.806,31.368-10.856,41.842-17.892v43.15
		c-2.052,0.418-4.011,1.418-5.604,3.01l-29.741,29.741c-22.165,7.937-53.843,13.812-92.438,13.812
		c-78.006,0-127.784-23.996-127.784-40.515v-49.179c6.593,4.411,15.016,8.712,25.76,12.703
		c27.422,10.186,63.654,15.795,102.023,15.795c6.103,0,11.052-4.948,11.052-11.052S155.991,189.882,149.886,189.882z
		 M149.886,25.552c78.004,0,127.783,23.995,127.783,40.515s-49.779,40.515-127.783,40.515c-78.002,0-127.781-23.996-127.781-40.515
		S71.883,25.552,149.886,25.552z M22.105,391.607v-41.515c6.593,4.411,15.016,8.711,25.76,12.703
		c27.422,10.186,63.654,15.795,102.023,15.795c20.333,0,40.034-1.606,58.172-4.606v10.173c0,6.104,4.949,11.052,11.052,11.052
		h29.129c1.547,4.47,3.365,8.846,5.443,13.102l-9.212,9.211c-22.242,8.332-54.724,14.599-94.584,14.599
		C71.884,432.121,22.105,408.125,22.105,391.607z M489.895,373.104H463.65c-5.008,0-9.39,3.368-10.68,8.208
		c-2.187,8.214-5.468,16.109-9.75,23.468c-2.522,4.336-1.809,9.827,1.737,13.375l18.582,18.581l-23.36,23.36l-18.581-18.581
		c-3.548-3.547-9.04-4.26-13.373-1.737c-7.362,4.283-15.258,7.563-23.469,9.75c-4.84,1.29-8.208,5.671-8.208,10.68v26.246H343.51
		v-26.246c0-5.009-3.368-9.391-8.209-10.68c-8.211-2.187-16.106-5.468-23.465-9.749c-4.335-2.523-9.826-1.81-13.375,1.737
		l-18.582,18.581l-23.36-23.36l18.581-18.581c3.547-3.547,4.26-9.038,1.737-13.373c-4.284-7.363-7.564-15.259-9.749-23.468
		c-1.289-4.84-5.671-8.209-10.68-8.209h-26.246v-33.037h26.246c5.009,0,9.391-3.369,10.68-8.209
		c2.186-8.209,5.465-16.103,9.749-23.466c2.522-4.336,1.809-9.827-1.737-13.373l-18.581-18.582l23.36-23.36l18.582,18.581
		c3.547,3.547,9.04,4.26,13.375,1.737c7.36-4.283,15.256-7.562,23.465-9.749c4.841-1.29,8.209-5.671,8.209-10.68V226.72h33.038
		v26.245c0,5.009,3.368,9.391,8.208,10.68c8.212,2.187,16.107,5.468,23.469,9.75c4.333,2.521,9.825,1.81,13.373-1.739l18.581-18.581
		l23.36,23.36l-18.582,18.581c-3.547,3.547-4.26,9.039-1.737,13.375c4.283,7.359,7.563,15.255,9.75,23.468
		c1.29,4.839,5.672,8.208,10.68,8.208h26.245V373.104z"/>
</g>
<g>
</g>
<g>
</g>
<g>
</g>
<g>
</g>
<g>
</g>
<g>
</g>
<g>
</g>
<g>
</g>
<g>
</g>
<g>
</g>
<g>
</g>
<g>
</g>
<g>
</g>
<g>
</g>
<g>
</g>
</svg>
